<svg width="32" height="17" viewBox="0 0 32 17" fill="none" xmlns="http://www.w3.org/2000/svg">
<path d="M30.8215 0.479573C30.5879 0.251242 30.2744 0.123413 29.948 0.123413C29.6215 0.123413 29.308 0.251242 29.0745 0.479573L16.0005 13.2361L2.92922 0.479573C2.69568 0.251242 2.38217 0.123413 2.05571 0.123413C1.72925 0.123413 1.41573 0.251242 1.18219 0.479573C1.06831 0.590557 0.977801 0.723252 0.915997 0.869826C0.854194 1.0164 0.822354 1.17388 0.822354 1.33297C0.822354 1.49207 0.854194 1.64955 0.915997 1.79612C0.977801 1.9427 1.06831 2.07539 1.18219 2.18638L15.0878 15.7518C15.332 15.9901 15.6595 16.1234 16.0005 16.1234C16.3415 16.1234 16.6691 15.9901 16.9133 15.7518L30.8189 2.18638C30.9327 2.07539 31.0233 1.9427 31.0851 1.79612C31.1469 1.64955 31.1787 1.49207 31.1787 1.33297C31.1787 1.17388 31.1469 1.0164 31.0851 0.869826C31.0233 0.723252 30.9327 0.590557 30.8189 0.479573H30.8215Z" fill="black"/>
</svg>
